<?xml version="1.0" encoding="utf-8"?>
<!-- Generator: Adobe Illustrator 15.0.0, SVG Export Plug-In . SVG Version: 6.00 Build 0)  -->
<!DOCTYPE svg PUBLIC "-//W3C//DTD SVG 1.1//EN" "http://www.w3.org/Graphics/SVG/1.1/DTD/svg11.dtd">
<svg version="1.1" id="Layer_1" xmlns="http://www.w3.org/2000/svg" xmlns:xlink="http://www.w3.org/1999/xlink" x="0px" y="0px"
	 width="200px" height="200px" viewBox="0 0 200 200" enable-background="new 0 0 200 200" xml:space="preserve">
<g>
	<path fill="#3B3F46" d="M120.131,67.808L95.75,60.11c-0.936-0.298-2.181-1.995-2.181-2.979V46.412h10.715l-19.29-23.579
		L65.703,46.41h10.72v10.72c0,8.469,6.092,16.782,14.167,19.329l24.379,7.7c0.938,0.298,2.18,1.994,2.18,2.979v25.723
		c0,0.986-1.241,2.682-2.186,2.979l-24.37,7.699c-8.08,2.546-14.172,10.859-14.172,19.33v34.297h17.146V142.87
		c0-0.981,1.244-2.683,2.188-2.979l24.369-7.697c8.076-2.551,14.173-10.856,14.173-19.332V87.14
		C134.297,78.666,128.203,70.357,120.131,67.808z"/>
	<path fill="#3B3F46" d="M95.833,110.271V89.727l-3.186-1.005c-3.117-0.984-5.85-2.906-7.927-5.379v33.317
		c2.077-2.477,4.811-4.396,7.928-5.385L95.833,110.271z"/>
</g>
</svg>
