<?xml version="1.0" encoding="utf-8"?>
<!-- Generator: Adobe Illustrator 15.0.0, SVG Export Plug-In . SVG Version: 6.00 Build 0)  -->
<!DOCTYPE svg PUBLIC "-//W3C//DTD SVG 1.1//EN" "http://www.w3.org/Graphics/SVG/1.1/DTD/svg11.dtd">
<svg version="1.1" id="Layer_1" xmlns="http://www.w3.org/2000/svg" xmlns:xlink="http://www.w3.org/1999/xlink" x="0px" y="0px"
	 width="200px" height="200px" viewBox="0 0 200 200" enable-background="new 0 0 200 200" xml:space="preserve">
<g>
	<path fill="#3B3F46" d="M91.556,87.453c1.535-0.412,2.441-1.981,2.029-3.507c-0.412-1.535-1.98-2.434-3.501-2.029
		c-1.534,0.413-2.439,1.981-2.029,3.508C88.46,86.954,90.029,87.865,91.556,87.453z"/>
	<path fill="#3B3F46" d="M108.443,87.453c1.523,0.413,3.097-0.5,3.508-2.029c0.415-1.527-0.497-3.097-2.025-3.508
		c-1.521-0.406-3.097,0.493-3.511,2.021C106.01,85.472,106.916,87.041,108.443,87.453z"/>
	<path fill="#3B3F46" d="M123.059,91.841c-1.117,1.124-1.117,2.928,0,4.049c1.125,1.124,2.938,1.124,4.058,0
		c1.108-1.123,1.108-2.927,0-4.049C125.994,90.719,124.184,90.719,123.059,91.841z"/>
	<path fill="#3B3F46" d="M135.005,112.539c1.534-0.407,2.438-1.986,2.028-3.508c-0.407-1.526-1.973-2.438-3.502-2.029
		c-1.535,0.413-2.434,1.98-2.034,3.514C131.916,112.049,133.482,112.941,135.005,112.539z"/>
	<path fill="#3B3F46" d="M135.012,125.365c-1.529-0.406-3.096,0.5-3.516,2.029c-0.4,1.526,0.498,3.098,2.033,3.51
		c1.527,0.412,3.096-0.493,3.502-2.031C137.445,127.354,136.539,125.775,135.012,125.365z"/>
	<path fill="#3B3F46" d="M123.059,142.02c-1.117,1.112-1.117,2.935,0,4.047c1.125,1.121,2.938,1.121,4.058,0
		c1.108-1.114,1.108-2.936,0-4.047C125.994,140.895,124.184,140.895,123.059,142.02z"/>
	<path fill="#3B3F46" d="M108.443,150.459c-1.526,0.404-2.436,1.975-2.028,3.501c0.414,1.536,1.974,2.435,3.511,2.03
		c1.526-0.407,2.438-1.979,2.025-3.51C111.539,150.956,109.971,150.048,108.443,150.459z"/>
	<path fill="#3B3F46" d="M91.556,150.459c-1.527-0.412-3.095,0.496-3.501,2.021c-0.412,1.527,0.495,3.103,2.029,3.51
		c1.521,0.404,3.091-0.504,3.501-2.03C93.997,152.436,93.09,150.863,91.556,150.459z"/>
	<path fill="#3B3F46" d="M72.891,142.02c-1.122,1.112-1.122,2.935,0,4.047c1.114,1.121,2.928,1.121,4.049,0
		c1.116-1.114,1.116-2.936,0-4.047C75.818,140.895,74.005,140.895,72.891,142.02z"/>
	<path fill="#3B3F46" d="M64.995,125.372c-1.528,0.405-2.441,1.974-2.029,3.501c0.413,1.536,1.981,2.434,3.509,2.031
		c1.528-0.412,2.434-1.979,2.029-3.51C68.09,125.865,66.523,124.959,64.995,125.372z"/>
	<path fill="#3B3F46" d="M64.995,112.539c1.528,0.402,3.095-0.49,3.509-2.023c0.405-1.531-0.5-3.101-2.029-3.514
		c-1.528-0.408-3.097,0.502-3.509,2.029C62.554,110.553,63.467,112.133,64.995,112.539z"/>
	<path fill="#3B3F46" d="M105.477,113.48c-0.348-0.338-0.713-0.629-1.096-0.892l0.033-0.045L76.941,91.841
		c-1.123-1.122-2.934-1.122-4.049,0c-1.122,1.124-1.122,2.928,0,4.049l20.705,27.476l0.04-0.037
		c0.264,0.389,0.555,0.753,0.893,1.094c3.021,3.021,7.92,3.021,10.947,0C108.482,121.404,108.482,116.502,105.477,113.48z"/>
	<path fill="#3B3F46" d="M144.854,81.321l2.888-2.886l1.001,1.001c0.841,0.839,2.197,0.839,3.027,0l3.785-3.779
		c0.832-0.838,0.832-2.196,0-3.029l-0.021-0.021l-9.013-9.01h-0.006c-0.832-0.838-2.188-0.838-3.027,0l-3.778,3.779
		c-0.839,0.839-0.839,2.192,0,3.029l0.979,0.979l-2.873,2.874c-6.772-5.733-14.857-9.959-23.748-12.149
		c5.029-4.084,8.24-10.309,8.24-17.301c0-12.323-9.983-22.308-22.311-22.308c-12.318,0-22.309,9.985-22.309,22.309
		c0,6.991,3.218,13.217,8.24,17.301c-8.881,2.19-16.968,6.416-23.741,12.149l-2.874-2.874l0.973-0.979
		c0.833-0.838,0.833-2.19,0-3.029l-3.785-3.779c-0.832-0.838-2.184-0.838-3.022,0l0,0l-9.012,9.01l-0.012,0.019
		c-0.845,0.833-0.845,2.19,0,3.029l3.772,3.779c0.839,0.838,2.198,0.838,3.029,0l1.007-1.001l2.888,2.886
		c-8.547,10.183-13.699,23.307-13.699,37.63c0,32.341,26.21,58.55,58.545,58.55c32.333,0,58.549-26.209,58.549-58.55
		C158.549,104.627,153.406,91.503,144.854,81.321z M85.005,44.809c0-8.28,6.713-14.995,14.995-14.995c8.281,0,15,6.715,15,14.995
		c0,6.492-4.131,12.013-9.889,14.104v-9.581h1.412c1.183,0,2.143-0.959,2.143-2.142v-5.348c0-1.184-0.96-2.142-2.143-2.142h-0.027
		H93.76h-0.006c-1.183,0-2.142,0.959-2.142,2.142v5.348c0,1.183,0.959,2.142,2.142,2.142h1.38v9.661
		C89.245,56.971,85.005,51.387,85.005,44.809z M100,163.204c-24.364,0-44.111-19.751-44.111-44.119
		c0-24.356,19.747-44.111,44.111-44.111c24.357,0,44.109,19.755,44.109,44.111C144.109,143.453,124.357,163.204,100,163.204z"/>
</g>
</svg>
